<svg width="274" height="187" viewBox="0 0 274 187" fill="none" xmlns="http://www.w3.org/2000/svg">
<g clip-path="url(#clip0_112_295)">
<path fill-rule="evenodd" clip-rule="evenodd" d="M33.9075 82.8344C34.661 78.8614 33.4965 76.1899 28.7015 76.1899H14.0425L12.741 82.9714H25.208C25.9615 82.9714 26.2355 83.3824 26.0985 84.2729L24.4545 92.6299H16.7825L17.947 86.8759L0 95.4384H13.3575L12.193 101.192L23.9065 95.5754L22.3995 103.727C22.2625 104.617 21.783 104.891 20.8925 104.891H8.4255L7.124 111.878H21.783C26.5095 111.878 28.77 109.07 29.455 105.234L33.9075 82.8344ZM58.088 111.878H50.3475L55.9645 82.9714H49.457C48.7035 82.9714 48.2925 83.3824 48.1555 84.2729L40.6205 111.81H32.606L40.8945 82.6289C41.648 78.7929 43.977 75.9844 48.772 75.9844H65.075L58.088 111.878ZM83.981 95.3014L82.337 104.069C82.2 104.96 81.5835 105.371 80.83 105.371H74.3225L76.5145 93.9999H83.022C83.981 94.0684 84.255 94.4109 83.981 95.3014ZM91.8585 94.4109C92.612 90.4379 91.4475 87.6294 86.6525 87.6294H77.8845L80.145 76.1899H72.473L65.486 112.015H81.926C86.7895 112.015 88.913 109.207 89.8035 105.371L91.8585 94.4109ZM117.135 82.9714L112.819 104.891H104.668L110.285 84.2729C110.422 83.3824 110.901 82.9714 111.586 82.9714H117.135ZM120.56 104.891V104.754H122.752L121.451 111.741H119.259H94.804H91.9955L93.5025 104.754H96.7905L103.024 82.6974C103.777 78.8614 106.106 76.0529 110.901 76.0529H126.314L120.56 104.891ZM147.206 84.3414L143.508 103.727C143.234 104.617 142.754 104.891 142.001 104.891H136.521C135.767 104.891 135.493 104.617 135.63 103.727L139.466 84.3414C139.603 83.4509 139.877 83.0399 140.768 83.0399H146.247C147.07 82.9714 147.343 83.4509 147.206 84.3414ZM155.084 82.8344C155.837 78.8614 154.673 76.1899 149.878 76.1899H140.083C135.356 76.1899 132.958 78.9984 132.068 82.8344L127.753 105.165C126.999 109.138 128.163 111.81 132.959 111.81H142.891C147.755 111.81 150.015 109.001 150.769 105.165L155.084 82.8344ZM176.867 84.3414L175.086 93.2464C174.949 94.2739 174.469 94.5479 173.579 94.5479H167.072L169.469 82.9714H175.977C176.73 82.9714 177.004 83.4509 176.867 84.3414ZM184.676 82.8344C185.566 78.8614 184.265 76.1899 179.47 76.1899H163.167L156.18 112.015H163.578L165.633 101.672H174.538C179.264 101.672 181.182 98.8634 182.073 94.8904L184.676 82.8344ZM200.363 85.5059L199.198 99.4114H193.855L199.951 85.5059H200.363ZM206.733 111.878H197.965L198.581 105.234H191.184L188.375 111.878H180.087L197.28 76.0529H207.624L206.733 111.878ZM235.023 82.9714L230.708 104.891H222.557L228.174 84.2729C228.311 83.3824 228.79 82.9714 229.475 82.9714H235.023ZM238.449 104.891L244.065 75.9844H228.653C223.926 75.9844 221.529 78.7929 220.775 82.6289L214.542 104.686H211.254L209.747 111.673H212.419H237.01H239.408L240.709 104.686H238.517V104.891H238.449ZM265.986 84.3414L262.15 103.727C262.013 104.617 261.533 104.891 260.848 104.891H255.368C254.614 104.891 254.34 104.617 254.477 103.727L258.176 84.3414C258.451 83.4509 258.93 83.0399 259.478 83.0399H264.958C265.711 82.9714 266.191 83.4509 265.986 84.3414ZM268.52 76.1899H258.587C253.861 76.1899 251.6 78.9984 250.915 82.8344L246.6 105.165C245.846 109.138 247.011 111.81 251.806 111.81H261.738C266.465 111.81 268.725 109.001 269.41 105.165L273.863 82.8344C274.479 78.8614 273.246 76.1899 268.52 76.1899Z" fill="#F0EFDB"/>
</g>
<defs>
<clipPath id="clip0_112_295">
<rect width="274" height="187" fill="white"/>
</clipPath>
</defs>
</svg>
