<svg width="113" height="43" viewBox="0 0 113 43" fill="none" xmlns="http://www.w3.org/2000/svg">
<g clip-path="url(#clip0_112_304)">
<path d="M10.1401 13.7885C10.6982 13.7885 11.1013 13.9583 11.1013 14.6154V30.3553H15.0085V16.151C15.0085 14.3717 14.7449 12.467 11.613 12.467H3.39552C0.271332 12.467 0 14.3717 0 16.151V30.3553H3.91493V14.6154C3.91493 13.9583 4.3103 13.7885 4.87622 13.7885H10.1401Z" fill="#F0EFDB"/>
<path d="M34.125 30.3536L38.5206 15.1083C39.0788 13.2848 39.916 12.0002 42.1254 12.0002C44.7379 12.0002 45.1721 13.7868 45.862 15.9352L50.3428 30.3536H46.2109L44.5596 24.9273H37.5128L35.9468 30.3536H34.125ZM44.0402 23.1924L41.9006 16.2305C41.5982 15.1969 41.637 14.5325 41.0323 14.5325C40.4199 14.5325 40.3346 15.2412 40.071 16.2748L38.0244 23.1924H44.0402Z" fill="#F0EFDB"/>
<path d="M28.6797 30.3521L24.3694 16.229C24.067 15.1954 24.1135 14.531 23.5089 14.531C22.8964 14.531 22.8112 15.2397 22.5476 16.2733L18.4156 30.3595H16.5938L20.9816 15.1142C21.5398 13.2907 22.377 12.0061 24.5864 12.0061C27.199 12.0061 27.6331 13.7927 28.3231 15.9411L32.8117 30.3595H28.6797V30.3521Z" fill="#F0EFDB"/>
<path d="M51.9297 30.3533V12.4651H55.8136V20.2538H62.9613V12.4651H66.9382V30.3533H62.9613V21.9887H55.8136V30.3533H51.9297Z" fill="#F0EFDB"/>
<path d="M81.3927 13.7866H73.9583C73.3846 13.7866 72.997 13.9564 72.997 14.6134V20.2464H79.912V21.9887H72.997V27.7842C72.997 28.611 73.5164 29.0245 74.4777 29.0245H81.9199V30.3533H72.0822C70.2139 30.3533 69.0821 29.5265 69.0821 27.2083V16.149C69.0821 14.3698 69.3456 12.4651 72.4776 12.4651H81.3927V13.7866Z" fill="#F0EFDB"/>
<path d="M88.8596 30.3533V13.7866H83.3477V12.4651H98.3562V13.7866H92.8443V30.3533H88.8596Z" fill="#F0EFDB"/>
<path d="M96.5078 30.3536L100.903 15.1083C101.469 13.2848 102.299 12.0002 104.516 12.0002C107.129 12.0002 107.563 13.7868 108.253 15.9352L112.734 30.3536H108.602L106.95 24.9273H99.9034L98.3374 30.3536H96.5078ZM106.423 23.1924L104.291 16.2305C103.989 15.1969 104.035 14.5325 103.423 14.5325C102.811 14.5325 102.725 15.2412 102.469 16.2748L100.423 23.1924H106.423Z" fill="#F0EFDB"/>
</g>
<defs>
<clipPath id="clip0_112_304">
<rect width="113" height="43" fill="white"/>
</clipPath>
</defs>
</svg>
