<svg width="278" height="187" viewBox="0 0 278 187" fill="none" xmlns="http://www.w3.org/2000/svg">
  <path d="M19.6835 110.846C26.4145 110.846 29.9705 103.806 33.082 94.2514H33.59C32.32 102.486 32.7645 110.846 40.194 110.846C46.8615 110.846 50.1 103.743 52.894 94.2514H53.402C52.132 102.36 52.4495 110.846 60.0695 110.846C66.737 110.846 70.4835 103.931 71.944 94.3143H67.245C66.6735 96.4514 65.721 98.5257 64.0065 98.5257C60.387 98.5257 62.3555 92.1771 63.943 84.2571L66.229 72.7543H54.926C54.926 72.7543 49.0205 98.5257 44.3215 98.5257C40.8925 98.5257 42.607 91.4857 44.004 84.1943L46.2265 72.8171H35.0505C32.955 81.3657 28.51 98.5886 24.3825 98.5886C23.049 98.5886 22.668 97.7086 22.668 96.5771C22.668 95.8229 22.8585 95.0686 23.1125 94.3771H12.8255C12.254 96.64 12 98.84 12 101.04C12 106.634 13.9685 110.846 19.6835 110.846ZM78.04 110.846C80.961 110.846 83.3105 108.457 83.3105 105.377C83.3105 102.297 80.961 99.9086 78.04 99.9086C75.119 99.9086 72.7695 102.297 72.7695 105.377C72.7695 108.457 75.119 110.846 78.04 110.846ZM108.456 98.4629C108.456 101.04 106.615 102.171 104.583 102.171H97.4075V94.6286H104.646C106.869 94.6286 108.456 96.0743 108.456 98.4629ZM97.344 80.6743H103.948C105.853 80.6743 107.313 81.7429 107.313 84.0686C107.313 86.4571 105.535 87.4629 103.948 87.4629H97.344V80.6743ZM111.314 90.5429C113.981 89.4743 116.711 86.96 116.711 82.2457C116.711 76.2114 112.394 72.7543 105.662 72.7543H88.2V110.091H105.853C112.647 110.091 117.791 106.697 117.791 99.72C117.791 94.8171 114.997 91.6114 111.314 90.4171V90.5429ZM256.665 91.4857C256.665 96.7657 253.364 101.543 247.395 101.543C241.235 101.543 237.87 96.8914 237.87 91.36C237.87 86.08 241.171 81.3029 247.14 81.3029C253.3 81.3029 256.665 86.0171 256.665 91.4857ZM228.535 91.4229C228.535 102.674 236.727 110.846 247.268 110.846C257.618 110.846 266 102.549 266 91.4229C266 80.1714 257.809 72 247.268 72C236.854 72 228.535 80.2971 228.535 91.4229ZM181.227 81.8686V101.04H170.369C171.893 97.5829 172.655 90.8571 172.655 82.3086V81.8686H181.227ZM190.435 101.04V72.8171H164.019V75.6457C164.019 88.4686 163.447 98.1486 160.654 101.04H156.907V116H166.115V110.091H186.498V116H195.705V101.04H190.435ZM208.596 101.04V95.5714H223.645V87.0229H208.596V81.8686H225.042V72.8171H199.389V110.154H225.55V101.103H208.596V101.04ZM144.334 72.7543L131.189 94V72.8171H121.982V110.154H131.189L144.334 88.9714V110.154H153.541V72.8171H144.334V72.7543Z" fill="#F0EFDB"/>
</svg>
