<svg width="32" height="32" viewBox="0 0 32 32" fill="none" xmlns="http://www.w3.org/2000/svg">
<rect width="32" height="32" rx="16" fill="#E94601"/>
<path fill-rule="evenodd" clip-rule="evenodd" d="M12.0596 12.0425C12.0596 9.83154 13.7924 8.00049 15.9772 8.00049C18.1621 8.00049 19.8949 9.83154 19.8949 12.0425C19.8949 14.2529 18.1621 16.0845 15.9772 16.0845C13.7924 16.0845 12.0596 14.2529 12.0596 12.0425ZM18.2235 19.7368C18.788 19.5288 19.3234 19.2383 19.8096 18.8745C20.4653 18.3833 20.5531 17.4634 20.0709 16.833C19.5912 16.2056 18.6834 16.0415 18.0319 16.5293C17.4338 16.9771 16.7138 17.2124 16.0172 17.1982C15.3174 17.1841 14.5652 16.916 13.9469 16.4443C13.3157 15.9629 12.3959 16.0518 11.9056 16.7085C11.4187 17.3604 11.5839 18.2681 12.2119 18.7471C12.6998 19.1191 13.2379 19.4238 13.8032 19.6499L12.1979 21.5723C11.6888 22.1816 11.7489 23.0996 12.3418 23.6328C12.9481 24.1777 13.8701 24.106 14.3903 23.4834L15.9771 21.5835L17.564 23.4834C18.084 24.106 19.0061 24.1777 19.6123 23.6328C20.2052 23.0996 20.2654 22.1816 19.7564 21.5723L18.2235 19.7368ZM16 13C16.5523 13 17 12.5522 17 12C17 11.4478 16.5523 11 16 11C15.4478 11 15 11.4478 15 12C15 12.5522 15.4478 13 16 13Z" fill="#F0EFDB"/>
</svg>
