<svg width="32" height="32" viewBox="0 0 32 32" fill="none" xmlns="http://www.w3.org/2000/svg">
<rect width="32" height="32" rx="16" fill="#E94601"/>
<path fill-rule="evenodd" clip-rule="evenodd" d="M7.45706 15.904C11.6446 14.0694 14.437 12.86 15.8342 12.2756C19.8234 10.6071 20.6523 10.3173 21.1926 10.3077C21.3114 10.3056 21.5771 10.3352 21.7492 10.4757C21.8946 10.5942 21.9346 10.7544 21.9537 10.8668C21.9728 10.9793 21.9966 11.2354 21.9777 11.4355C21.7615 13.7195 20.8261 19.2622 20.3503 21.8203C20.1489 22.9027 19.7524 23.2657 19.3686 23.3012C18.5344 23.3784 17.901 22.7468 17.093 22.2143C15.8287 21.3809 15.1145 20.8621 13.8873 20.049C12.4691 19.1092 13.3884 18.5926 14.1967 17.7485C14.4082 17.5276 18.0836 14.1659 18.1548 13.861C18.1637 13.8228 18.1719 13.6807 18.0879 13.6056C18.0039 13.5305 17.88 13.5562 17.7905 13.5766C17.6637 13.6055 15.644 14.9479 11.7314 17.6037C11.1582 17.9995 10.6389 18.1924 10.1736 18.1823C9.66076 18.1712 8.67416 17.8907 7.94072 17.651C7.04114 17.3569 6.32616 17.2014 6.38842 16.7021C6.42085 16.442 6.77706 16.1759 7.45706 15.904Z" fill="#F0EFDB"/>
</svg>
