<svg width="32" height="32" viewBox="0 0 32 32" fill="none" xmlns="http://www.w3.org/2000/svg">
<rect width="32" height="32" rx="16" fill="#E94601"/>
<path fill-rule="evenodd" clip-rule="evenodd" d="M22.2602 10.367C22.9455 10.5647 23.4859 11.1435 23.6703 11.8777C24.0131 13.2188 23.9999 16.0141 23.9999 16.0141C23.9999 16.0141 23.9999 18.7952 23.6705 20.1364C23.4859 20.8705 22.9456 21.4494 22.2602 21.647C21.0081 22 16 22 16 22C16 22 11.0049 22 9.73974 21.633C9.05432 21.4353 8.51404 20.8564 8.32947 20.1223C8 18.7952 8 16 8 16C8 16 8 13.2188 8.32947 11.8777C8.51391 11.1436 9.0675 10.5506 9.73962 10.353C10.9917 10 15.9998 10 15.9998 10C15.9998 10 21.0081 10 22.2602 10.367ZM18.5699 16.0001L14.4053 18.5695V13.4307L18.5699 16.0001Z" fill="#F0EFDB"/>
</svg>
